# xmcd CD database file
#
# Track frame offsets:
#	150
#	15155
#	40103
#	62589
#	84542
#	97275
#	112388
#	117155
#	135086
#	157632
#	175388
#	185232
#	194871
#	213458
#	229586
#	254726
#	266486
#	281625
#
# Disc length: 4056 seconds
#
# Revision: 1
# Processed by: cddbd v1.5.2PL0 Copyright (c) Steve Scherf et al.
# Submitted via: CDex 1.50
#
DISCID=060fd612
DTITLE=אבנר שטראוס - בלוז חצי אחוז
DYEAR=1995
DGENRE=Blues
TTITLE0=פתיח
TTITLE1=ירח פלח תפוז
TTITLE2=בלוז נשים גדולות
TTITLE3=סוכן חרש בעקבות הבלוז
TTITLE4=שני כלבים
TTITLE5=בלוז חצי אחוז
TTITLE6=בלוז רזה כזה
TTITLE7=האהבה שלך היא ברז
TTITLE8=שקרים
TTITLE9=מדברת אל הכלב או אלי
TTITLE10=הלילה הזה
TTITLE11=בלוז רכבת
TTITLE12=השקתה אותי אהבה
TTITLE13=אם בלוז היה יין
TTITLE14=בלק'נ'דקר בלוז
TTITLE15=עשר שנים לפני כולם
TTITLE16=איש שלא מכיר אותך כשאתה תפרן ודפוק
TTITLE17=היא חזרה בתשובה
EXTD=YEAR: 1995
EXTT0=
EXTT1=
EXTT2=
EXTT3=
EXTT4=
EXTT5=
EXTT6=
EXTT7=
EXTT8=
EXTT9=
EXTT10=
EXTT11=
EXTT12=
EXTT13=
EXTT14=
EXTT15=
EXTT16=
EXTT17=
PLAYORDER=
